<svg xmlns="http://www.w3.org/2000/svg" viewBox="0 0 64 64"><defs><style>.cls-1{fill:#a2d0ff;}.cls-2{fill:#8bc4ff;}.cls-3{fill:#e8f3ff;}.cls-4{fill:#2e58ff;}</style></defs><title>message information</title><g id="message_information" data-name="message information"><path class="cls-1" d="M62,22V58a4,4,0,0,1-4,4H6a4,4,0,0,1-4-4V23c12.59,9.8,7.06,5.49,24.68,19.19a8.57,8.57,0,0,0,10.69-.12Z"/><polygon class="cls-2" points="62 22 52 30.15 52 12 62 22"/><path class="cls-3" d="M52,2V30.15L37.37,42.07a8.57,8.57,0,0,1-10.69.12L12,30.78V2Z"/><polygon class="cls-2" points="12 12 12 30.78 2 23 2 22 12 12"/><path class="cls-4" d="M64,21.91c-.05-1.11.17-.58-10-10.74V2a2,2,0,0,0-2-2H12a2,2,0,0,0-2,2v9.17L.59,20.59C-.25,21.42,0,18.72,0,58a6,6,0,0,0,6,6H58a6,6,0,0,0,6-6C64,10.56,64.11,24.51,64,21.91Zm-5-.06-5,4.09V16.83ZM14,4H50V29.2L36.1,40.52a6.61,6.61,0,0,1-8.19.09L14,29.8ZM10,26.69,4.45,22.37,10,16.83ZM58,60H6a2,2,0,0,1-2-2V27.09c.1.08,21.66,16.87,22.38,17.32a10.75,10.75,0,0,0,8.27,1.23C37.76,44.83,36.93,45,60,26.21V58A2,2,0,0,1,58,60Z"/><path class="cls-4" d="M32,34a2,2,0,0,1-2-2V20H28a2,2,0,0,1,0-4h4a2,2,0,0,1,2,2V32A2,2,0,0,1,32,34Z"/><path class="cls-4" d="M31,12a2,2,0,1,1,2-2A2,2,0,0,1,31,12Zm2-2Zm-2,0h0Z"/><path class="cls-4" d="M36,34H28a2,2,0,0,1,0-4h8a2,2,0,0,1,0,4Z"/></g></svg>