<svg xmlns="http://www.w3.org/2000/svg" viewBox="0 0 48 48"><defs><style>.cls-1{fill:#42a5f5;}.cls-2{fill:#424242;}</style></defs><title>Solution</title><g id="Solution"><rect class="cls-1" x="6" y="44" width="14" height="4"/><path class="cls-2" d="M17.53,28.87l-5.94-5.93A3.92,3.92,0,0,0,8,21.84V14a4,4,0,0,0-4.29-4A4.1,4.1,0,0,0,0,14.17V29.5a5,5,0,0,0,1.24,3.29L7,39.38V42H9c0-3.21.08-3.29-.25-3.66C2.42,31.1,2,31,2,29.5V14.17A2.12,2.12,0,0,1,3.85,12,2,2,0,0,1,6,14c0,9.6,0,8.83-.06,8.93a4,4,0,0,0,0,5.66L10.29,33a1,1,0,0,0,1.42-1.41L7.34,27.17a2,2,0,0,1,0-2.82,2,2,0,0,1,2.82,0l6,5.94A3,3,0,0,1,17,32.41V42h2V32.41A5,5,0,0,0,17.53,28.87Z"/><path class="cls-2" d="M44.29,10A4,4,0,0,0,40,14v7.87a4,4,0,0,0-3.59,1.06l-5.94,5.94A5,5,0,0,0,29,32.41V42h2V32.41a3,3,0,0,1,.88-2.12l5.95-5.95a2,2,0,0,1,3.42,1.42c0,1.06-.23,1-5,5.78A1,1,0,0,0,37.71,33c4.49-4.5,5.54-5.08,5.54-7.19A3.92,3.92,0,0,0,42,22.87c0-9.7-.2-9.49.59-10.28A2,2,0,0,1,46,14.17c0,16.81.26,16.18-.74,17.3C38.79,38.86,39,38.47,39,39v3h2V39.38l5.76-6.59A5,5,0,0,0,48,29.5V14.17A4.1,4.1,0,0,0,44.29,10Z"/><rect class="cls-1" x="28" y="44" width="14" height="4" transform="translate(70 92) rotate(-180)"/><path class="cls-1" d="M15,14.82V18h6.18a3,3,0,1,0,5.64,0H33V14.82a3,3,0,1,1,0-5.64V0H26.82a3,3,0,1,1-5.64,0H15V9.18a3,3,0,1,1,0,5.64Z"/></g></svg>